<?xml version="1.0" encoding="UTF-8"?>
<!DOCTYPE svg PUBLIC "-//W3C//DTD SVG 1.1//EN" "http://www.w3.org/Graphics/SVG/1.1/DTD/svg11.dtd">
<!-- Creator: CorelDRAW 2019 (64-Bit) -->
<svg xmlns="http://www.w3.org/2000/svg" xml:space="preserve" width="2.52926in" height="1.76914in" version="1.1" style="shape-rendering:geometricPrecision; text-rendering:geometricPrecision; image-rendering:optimizeQuality; fill-rule:evenodd; clip-rule:evenodd"
viewBox="0 0 2369.57 1657.44"
 xmlns:xlink="http://www.w3.org/1999/xlink"
 xmlns:xodm="http://www.corel.com/coreldraw/odm/2003">
 <defs>
  <style type="text/css">
   <![CDATA[
    .fil1 {fill:#6666FF}
    .fil0 {fill:#6666FF;fill-rule:nonzero}
   ]]>
  </style>
 </defs>
 <g id="Layer_x0020_1">
  <metadata id="CorelCorpID_0Corel-Layer"/>
  <g id="_1542624596496">
   <path class="fil0" d="M1255.61 1341.5c10.52,19.94 22.99,36.86 37.42,50.77 24.98,24.08 53.28,40.48 84.88,49.21 31.6,8.73 64.86,10.38 99.78,4.96 34.92,-5.42 68.93,-16.4 102.04,-32.96 33.11,-16.55 63.96,-37.92 92.55,-64.11 28.6,-26.19 51.92,-55.84 69.98,-88.94 10.23,-1.81 18.51,-1.81 24.83,0 6.32,1.8 11.14,4.51 14.45,8.13 3.31,3.61 5.12,7.68 5.42,12.19 0.3,4.51 -0.45,8.58 -2.26,12.19 -46.35,81.27 -94.66,147.64 -144.93,199.11 -50.26,51.47 -100.53,90.6 -150.79,117.39 -50.27,26.79 -99.78,42.29 -148.54,46.5 -48.76,4.21 -94.51,-0.45 -137.25,-14 -42.74,-13.54 -81.57,-34.61 -116.48,-63.21 -34.91,-28.59 -63.81,-62.61 -86.69,-102.04 -13.32,-22.95 -24.24,-47.29 -32.76,-73 96.84,-10.85 193.01,-31.86 288.36,-62.2z"/>
   <path class="fil0" d="M310.73 687.91c-39.73,-13.84 -76.75,-29.8 -111.07,-47.85 -34.31,-18.06 -62.91,-40.03 -85.78,-65.92 -22.88,-25.89 -38.83,-56.44 -47.86,-91.65 -9.03,-35.22 -8.13,-77.21 2.71,-125.97 5.42,-22.88 13.55,-42.74 24.38,-59.59 10.84,-16.86 23.48,-29.2 37.92,-37.02 14.45,-7.82 30.7,-10.38 48.76,-7.67 18.06,2.71 37.02,12.19 56.89,28.44 15.65,12.64 31.91,26.34 48.76,41.09 16.86,14.75 34.01,29.95 51.47,45.6 40.33,31.3 83.67,60.5 130.03,87.59 46.35,27.09 94.81,51.17 145.38,72.24 50.57,21.07 102.34,39.28 155.31,54.63 52.97,15.35 106.55,26.94 160.73,34.76 -9.03,-43.94 -9.33,-90.45 -0.9,-139.51 8.43,-49.06 23.78,-97.07 46.05,-144.03 22.27,-46.95 50.72,-91.65 85.33,-134.09 34.62,-42.44 73.44,-79.01 116.48,-109.71 43.04,-30.7 89.7,-54.18 139.96,-70.43 50.27,-16.25 102.18,-21.97 155.76,-17.15 29.5,3.01 57.79,9.78 84.88,20.32 27.09,10.53 51.47,24.83 73.14,42.89 21.67,18.06 40.03,39.58 55.08,64.56 15.05,24.98 25.28,53.43 30.7,85.33 6.02,46.35 2.86,88.64 -9.48,126.87 -12.34,38.23 -31.3,72.99 -56.89,104.29 -25.59,31.3 -56.44,59.45 -92.56,84.43 -36.12,24.98 -74.5,46.95 -115.13,65.92 -40.64,18.96 -82.47,35.22 -125.51,48.76 -43.04,13.54 -84.43,24.83 -124.16,33.86 6.02,10.24 17.16,21.67 33.41,34.31 16.25,12.64 34.01,22.88 53.28,30.7 13.25,5.42 26.79,9.93 40.64,13.54 13.84,3.61 26.18,7.07 37.02,10.39 10.84,3.31 19.87,6.32 27.09,9.03 7.23,2.71 11.14,5.87 11.74,9.48 1.2,6.62 -2.26,13.25 -10.39,19.87 -8.13,6.62 -18.66,14.3 -31.6,23.03 -12.94,8.73 -27.24,18.81 -42.89,30.25 -15.65,11.44 -30.7,24.98 -45.15,40.63 -17.46,19.26 -31.46,41.99 -41.99,68.18 -10.53,26.18 -17.76,54.18 -21.67,83.97 -3.91,29.8 -4.67,60.2 -2.26,91.2 2.26,29.12 7.44,57.04 15.54,83.76 -91.62,30.98 -185.38,52.24 -280.51,63.54 -0.33,-1.69 -0.65,-3.39 -0.97,-5.09 -8.73,-47.56 -8.58,-96.92 0.45,-148.09 9.03,-51.17 28.14,-103.09 57.34,-155.76 29.2,-52.67 70.59,-103.39 124.16,-152.15 -29.5,-12.04 -55.08,-26.18 -76.75,-42.44 -21.67,-16.25 -40.33,-34.31 -55.99,-54.18 -52.37,11.44 -107.15,18.96 -164.34,22.57 -57.19,3.61 -114.83,3.31 -172.92,-0.9 -58.09,-4.22 -115.43,-11.89 -172.02,-23.03 -56.58,-11.14 -110.46,-25.73 -161.63,-43.8zm1253.79 -422.08c0.6,-18.66 -3.01,-34.91 -10.84,-48.76 -7.83,-13.84 -19.71,-23.78 -35.67,-29.8 -15.95,-6.02 -35.82,-7.07 -59.6,-3.16 -23.78,3.91 -51.32,14.3 -82.62,31.16 -31.3,17.46 -61.86,39.13 -91.65,65.01 -29.8,25.89 -55.98,53.88 -78.56,83.98 -22.58,30.1 -40.03,61.4 -52.37,93.91 -12.34,32.51 -16.41,64.11 -12.19,94.81 49.36,-5.42 93.91,-14.6 133.64,-27.54 39.73,-12.94 75.25,-28 106.55,-45.15 31.3,-17.15 58.24,-35.67 80.81,-55.53 22.58,-19.87 41.39,-39.58 56.44,-59.14 15.05,-19.57 26.34,-38.08 33.86,-55.53 7.52,-17.46 11.59,-32.21 12.19,-44.25z"/>
   <path class="fil1" d="M1746.29 399.46c11.76,58.12 230.6,81.29 281.41,192.77l-114.03 191.62c-55.11,-1.52 -137.83,-44.14 -184.38,-16.38 2.65,35.64 10.79,28.9 48.43,48.13 26.21,13.4 38.38,17.81 58.4,39.49 -9.81,36.44 -46.63,53.8 -92.06,93.4 -453.63,395.47 -1028.04,487.61 -1577.9,242.73 -54.7,-24.37 -116.67,-63.63 -166.17,-82.17 35.69,53.44 251.1,153.88 335.71,184.67 377.43,137.35 750.67,99.53 1109.89,-65.09 125.82,-57.66 297.93,-178.01 395.84,-278.67 32.97,-33.89 16.09,-33.6 60.8,-47.7 9.27,22.14 19.32,42.99 31.1,64.65 19.06,35.03 15.99,45.11 54.28,57.91 3.18,-74.17 -32.14,-131.1 -32.48,-204.78 15.29,-20.88 145.88,-138.79 168.41,-148.87 83.06,46.94 138.83,196.55 190.28,285.77 26.3,-57.74 -35.56,-283.05 -52.52,-361.48 -21.96,-101.51 -17.61,-86.97 33.19,-156.35 31.51,-43.03 75.28,-86.22 75.07,-152.95 -164.5,59.01 -120.24,174.01 -262.51,154.54 -58.6,-8.02 -329.44,-59.64 -360.76,-41.24z"/>
  </g>
 </g>
</svg>
